<mxfile host="Electron" modified="2024-09-24T15:28:25.558Z" agent="Mozilla/5.0 (Macintosh; Intel Mac OS X 10_15_7) AppleWebKit/537.36 (KHTML, like Gecko) draw.io/22.1.16 Chrome/120.0.6099.109 Electron/28.1.0 Safari/537.36" etag="rzW9ii54F4vgqz2T7tft" version="22.1.16" type="device">
  <diagram name="Page-1" id="9AhVNNaZm9_kBkGBlk6f">
    <mxGraphModel dx="954" dy="727" grid="1" gridSize="10" guides="1" tooltips="1" connect="1" arrows="1" fold="1" page="1" pageScale="1" pageWidth="850" pageHeight="1100" math="0" shadow="0">
      <root>
        <mxCell id="0" />
        <mxCell id="1" parent="0" />
        <mxCell id="oHO3H6FujSyn-44yPPKD-12" value="" style="edgeStyle=orthogonalEdgeStyle;rounded=0;orthogonalLoop=1;jettySize=auto;html=1;dashed=1;" edge="1" parent="1" source="oHO3H6FujSyn-44yPPKD-1" target="oHO3H6FujSyn-44yPPKD-4">
          <mxGeometry relative="1" as="geometry" />
        </mxCell>
        <mxCell id="oHO3H6FujSyn-44yPPKD-1" value="Unstructured&lt;br&gt;Content" style="shape=cylinder3;whiteSpace=wrap;html=1;boundedLbl=1;backgroundOutline=1;size=15;" vertex="1" parent="1">
          <mxGeometry x="200" y="402" width="80" height="90" as="geometry" />
        </mxCell>
        <mxCell id="oHO3H6FujSyn-44yPPKD-2" value="Structured&lt;br&gt;Summaries" style="shape=cylinder3;whiteSpace=wrap;html=1;boundedLbl=1;backgroundOutline=1;size=15;" vertex="1" parent="1">
          <mxGeometry x="480" y="399" width="80" height="90" as="geometry" />
        </mxCell>
        <mxCell id="oHO3H6FujSyn-44yPPKD-18" style="edgeStyle=orthogonalEdgeStyle;rounded=0;orthogonalLoop=1;jettySize=auto;html=1;dashed=1;startArrow=none;startFill=0;" edge="1" parent="1" source="oHO3H6FujSyn-44yPPKD-3">
          <mxGeometry relative="1" as="geometry">
            <mxPoint x="510" y="380" as="targetPoint" />
            <Array as="points">
              <mxPoint x="460" y="430" />
              <mxPoint x="460" y="380" />
            </Array>
          </mxGeometry>
        </mxCell>
        <mxCell id="oHO3H6FujSyn-44yPPKD-3" value="Entity&lt;br&gt;Catalog" style="shape=cylinder3;whiteSpace=wrap;html=1;boundedLbl=1;backgroundOutline=1;size=15;" vertex="1" parent="1">
          <mxGeometry x="340" y="399" width="80" height="90" as="geometry" />
        </mxCell>
        <mxCell id="oHO3H6FujSyn-44yPPKD-7" value="" style="edgeStyle=orthogonalEdgeStyle;rounded=0;orthogonalLoop=1;jettySize=auto;html=1;" edge="1" parent="1" source="oHO3H6FujSyn-44yPPKD-4" target="oHO3H6FujSyn-44yPPKD-5">
          <mxGeometry relative="1" as="geometry" />
        </mxCell>
        <mxCell id="oHO3H6FujSyn-44yPPKD-4" value="Summarize content with LLM" style="rounded=0;whiteSpace=wrap;html=1;" vertex="1" parent="1">
          <mxGeometry x="180" y="310" width="120" height="60" as="geometry" />
        </mxCell>
        <mxCell id="oHO3H6FujSyn-44yPPKD-8" value="" style="edgeStyle=orthogonalEdgeStyle;rounded=0;orthogonalLoop=1;jettySize=auto;html=1;" edge="1" parent="1" source="oHO3H6FujSyn-44yPPKD-5" target="oHO3H6FujSyn-44yPPKD-6">
          <mxGeometry relative="1" as="geometry" />
        </mxCell>
        <mxCell id="oHO3H6FujSyn-44yPPKD-11" value="" style="edgeStyle=orthogonalEdgeStyle;rounded=0;orthogonalLoop=1;jettySize=auto;html=1;dashed=1;startArrow=classic;startFill=1;endArrow=none;endFill=0;" edge="1" parent="1" source="oHO3H6FujSyn-44yPPKD-5" target="oHO3H6FujSyn-44yPPKD-3">
          <mxGeometry relative="1" as="geometry" />
        </mxCell>
        <mxCell id="oHO3H6FujSyn-44yPPKD-5" value="Resolve ambiguities with LLM WSD" style="rounded=0;whiteSpace=wrap;html=1;" vertex="1" parent="1">
          <mxGeometry x="320" y="310" width="120" height="60" as="geometry" />
        </mxCell>
        <mxCell id="oHO3H6FujSyn-44yPPKD-10" value="" style="edgeStyle=orthogonalEdgeStyle;rounded=0;orthogonalLoop=1;jettySize=auto;html=1;" edge="1" parent="1" source="oHO3H6FujSyn-44yPPKD-6" target="oHO3H6FujSyn-44yPPKD-9">
          <mxGeometry relative="1" as="geometry" />
        </mxCell>
        <mxCell id="oHO3H6FujSyn-44yPPKD-13" value="" style="edgeStyle=orthogonalEdgeStyle;rounded=0;orthogonalLoop=1;jettySize=auto;html=1;dashed=1;" edge="1" parent="1" source="oHO3H6FujSyn-44yPPKD-6" target="oHO3H6FujSyn-44yPPKD-2">
          <mxGeometry relative="1" as="geometry" />
        </mxCell>
        <mxCell id="oHO3H6FujSyn-44yPPKD-6" value="Process and store&amp;nbsp;&lt;br&gt;structured information" style="rounded=0;whiteSpace=wrap;html=1;" vertex="1" parent="1">
          <mxGeometry x="460" y="310" width="120" height="60" as="geometry" />
        </mxCell>
        <mxCell id="oHO3H6FujSyn-44yPPKD-9" value="" style="shape=waypoint;sketch=0;size=6;pointerEvents=1;points=[];fillColor=default;resizable=0;rotatable=0;perimeter=centerPerimeter;snapToPoint=1;rounded=0;" vertex="1" parent="1">
          <mxGeometry x="598" y="330" width="20" height="20" as="geometry" />
        </mxCell>
        <mxCell id="oHO3H6FujSyn-44yPPKD-20" value="" style="edgeStyle=orthogonalEdgeStyle;rounded=0;orthogonalLoop=1;jettySize=auto;html=1;" edge="1" parent="1" source="oHO3H6FujSyn-44yPPKD-19" target="oHO3H6FujSyn-44yPPKD-4">
          <mxGeometry relative="1" as="geometry" />
        </mxCell>
        <mxCell id="oHO3H6FujSyn-44yPPKD-19" value="" style="shape=waypoint;sketch=0;size=6;pointerEvents=1;points=[];fillColor=default;resizable=0;rotatable=0;perimeter=centerPerimeter;snapToPoint=1;rounded=0;" vertex="1" parent="1">
          <mxGeometry x="140" y="330" width="20" height="20" as="geometry" />
        </mxCell>
      </root>
    </mxGraphModel>
  </diagram>
</mxfile>
